<?xml version="1.0" encoding="utf-8"?>
<!-- Generator: Adobe Illustrator 18.1.1, SVG Export Plug-In . SVG Version: 6.00 Build 0)  -->
<svg version="1.1" id="Layer_1" xmlns="http://www.w3.org/2000/svg" xmlns:xlink="http://www.w3.org/1999/xlink" x="0px" y="0px"
	 viewBox="0 0 612 792" enable-background="new 0 0 612 792" xml:space="preserve">
<circle fill="#1C2421" cx="305.8" cy="395.6" r="306"/>
<path fill="#FFFFFF" d="M157.3,323.6h62.9v204.1h-62.9V323.6z M189.3,222.8c20.1,0,36.8,16.6,36.8,36.8c0,20.1-16.6,36.8-36.8,36.8
	s-36.8-16.6-36.8-36.8S169.2,222.8,189.3,222.8z M260.5,323.6H321v27.3h1.2c8.3-16.7,29.7-33.3,60.5-33.3
	c64.1,0,75.9,42.8,75.9,97.4v111.5h-62.9v-99.7c0-23.7,0-54.6-33.2-54.6s-38,26.1-38,52.2v100.8h-64.1V323.6L260.5,323.6z"/>
</svg>
