<?xml version="1.0" encoding="utf-8"?>
<!-- Generator: Adobe Illustrator 18.1.1, SVG Export Plug-In . SVG Version: 6.00 Build 0)  -->
<svg version="1.1" id="Layer_1" xmlns="http://www.w3.org/2000/svg" xmlns:xlink="http://www.w3.org/1999/xlink" x="0px" y="0px"
	 viewBox="0 0 612 792" enable-background="new 0 0 612 792" xml:space="preserve">
<circle fill="#1C2421" cx="305.8" cy="395.6" r="306"/>
<path fill="#FFFFFF" d="M496.2,377.1h-42.5v-42.4H432v42.4h-42.5V398H432v42.5h21.7V398h42.5V377.1z M344.2,417.1l-15.5-11.8
	c-4.7-3.8-11.2-8.9-11.2-18.2c0-9.3,6.4-15.2,12-20.8c18-13.9,36.1-28.8,36.1-60c0-32.2-19.5-47.7-29.5-55.7h25.4l27.8-16.9h-89.5
	c-23.2,0-54.5,2.4-78.9,22.3c-18.4,15.6-24.5,38.6-24.5,58.1c0,33,25.8,66.4,71.3,66.4c4.3,0,9-0.4,13.7-0.9
	c-2.1,5-4.3,9.3-4.3,16.5c0,13.1,6.9,21.2,12.8,28.7c-19.2,1.2-55.2,3.4-81.9,19.4c-25.4,14.9-33.1,36.4-33.1,51.6
	c0,31.3,28.8,60.8,91,60.8c73.8,0,114-40.5,114-80.2C380.3,447.1,363.1,432.8,344.2,417.1L344.2,417.1z M288.1,369.7
	c-36.9,0-53.6-46.9-53.6-75.3c0-11,2.2-23.5,9.4-32.4c6.9-8.5,18.9-12.9,30-12.9c35.6-0.1,54.1,47.3,54.1,77.7
	c0,7.7-0.8,20-10.7,29.8C310.4,363.5,298.8,369.5,288.1,369.7L288.1,369.7z M288.3,538.6c-45.9,0-75.6-21.5-75.6-51.7
	c0-30,27.5-40.1,36.9-43.6c18-6,41.2-6.8,45-6.8c4.3,0,6.4,0,9.9,0.5c32.7,22.8,46.8,34.2,46.8,55.8
	C351.5,519.1,329.6,538.6,288.3,538.6L288.3,538.6z"/>
</svg>
