<?xml version="1.0" encoding="utf-8"?>
<!-- Generator: Adobe Illustrator 18.1.1, SVG Export Plug-In . SVG Version: 6.00 Build 0)  -->
<svg version="1.1" id="Layer_1" xmlns="http://www.w3.org/2000/svg" xmlns:xlink="http://www.w3.org/1999/xlink" x="0px" y="0px"
	 viewBox="0 0 612 792" enable-background="new 0 0 612 792" xml:space="preserve">
<circle fill="#1C2421" cx="305.8" cy="395.6" r="306"/>
<path fill="#FFFFFF" d="M452.7,304.3c-10.9,4.9-22.6,8.1-34.8,9.5c12.5-7.4,22.1-19.3,26.7-33.5c-11.8,6.9-24.7,12-38.5,14.7
	c-11-11.8-26.8-19.1-44.2-19.1c-33.4,0-60.5,27.1-60.5,60.5c0,4.8,0.6,9.4,1.6,13.8c-50.4-2.6-95-26.7-124.9-63.2
	c-5.2,9-8.2,19.3-8.2,30.4c0,21.1,10.7,39.5,27,50.4c-9.9-0.3-19.2-3-27.4-7.6v0.8c0,29.4,20.8,53.8,48.5,59.3
	c-5.1,1.4-10.5,2.2-16,2.2c-3.9,0-7.7-0.4-11.4-1.1c7.7,24.1,30.1,41.6,56.5,42.1c-20.7,16.2-46.8,25.9-75.3,25.9
	c-4.8,0-9.7-0.3-14.5-0.9c26.8,17.2,58.6,27.2,92.8,27.2c111.4,0,172.2-92.3,172.2-172.2c0-2.6-0.1-5.3-0.2-7.9
	C434.3,327,444.6,316.3,452.7,304.3L452.7,304.3z"/>
</svg>
