<?xml version="1.0" encoding="utf-8"?>
<!-- Generator: Adobe Illustrator 18.1.1, SVG Export Plug-In . SVG Version: 6.00 Build 0)  -->
<svg version="1.1" id="Layer_1" xmlns="http://www.w3.org/2000/svg" xmlns:xlink="http://www.w3.org/1999/xlink" x="0px" y="0px"
	 viewBox="0 0 595.3 841.9" enable-background="new 0 0 595.3 841.9" xml:space="preserve">
<circle fill="#1C2421" cx="297.4" cy="420.6" r="297.6"/>
<path fill="#FFFFFF" d="M287,518.2h21.2c0,0,6.4-0.7,9.6-4.2c3-3.2,2.9-9.3,2.9-9.3s-0.4-28.5,12.8-32.6c13-4.1,29.7,27.5,47.3,39.6
	c13.4,9.2,23.5,7.2,23.5,7.2l47.3-0.7c0,0,24.7-1.5,13-21c-1-1.5-6.8-14.5-35.2-40.7c-29.7-27.6-25.7-23.1,10-70.7
	c21.9-29,30.6-46.7,27.8-54.3c-2.5-7.3-18.5-5.3-18.5-5.3l-53.3,0.3c0,0-4-0.6-6.8,1.2s-4.7,5.7-4.7,5.7s-8.4,22.4-19.6,41.5
	c-23.7,40.3-33.2,42.4-37.1,39.9c-9-5.8-6.7-23.4-6.7-36c0-39.1,6-55.3-11.6-59.5c-5.7-1.4-10-2.3-24.8-2.4c-19-0.2-35.1,0-44.3,4.5
	c-6.1,3-10.7,9.6-7.8,9.9c3.5,0.4,11.5,2.2,15.7,7.9c5.5,7.4,5.3,24.1,5.3,24.1s3.2,46-7.3,51.6c-7.2,3.9-17-4.1-38.2-40.6
	c-10.8-18.7-19-39.4-19-39.4s-1.5-3.9-4.4-6c-3.4-2.5-8.2-3.3-8.2-3.3l-50.7,0.3c0,0-7.6,0.2-10.4,3.5c-2.4,3-0.2,9-0.2,9
	s39.6,92.7,84.5,139.5C240.3,521.1,287,518.2,287,518.2"/>
</svg>
