<?xml version="1.0" encoding="utf-8"?>
<!-- Generator: Adobe Illustrator 19.1.0, SVG Export Plug-In . SVG Version: 6.00 Build 0)  -->
<svg version="1.1" id="Layer_1" xmlns="http://www.w3.org/2000/svg" xmlns:xlink="http://www.w3.org/1999/xlink" x="0px" y="0px"
	 viewBox="0 0 360.5 115.5" style="enable-background:new 0 0 360.5 115.5;" xml:space="preserve">
<style type="text/css">
	.Arched_x0020_Green{fill:url(#SVGID_1_);stroke:#FFFFFF;stroke-width:0.25;stroke-miterlimit:1;}
	.st0{fill:#FFFFFF;}
</style>
<linearGradient id="SVGID_1_" gradientUnits="userSpaceOnUse" x1="1.000000e-03" y1="115.543" x2="0.7081" y2="114.8359">
	<stop  offset="0" style="stop-color:#2DA84C"/>
	<stop  offset="0.9831" style="stop-color:#1B361D"/>
</linearGradient>
<g>
	<path class="st0" d="M300.8,77v-4h20.7v4H300.8z M321.5,55.6v4h-1.4c1.3,0.7,1.9,2.4,1.9,3.9c0,4.2-3.3,6.7-7.1,6.7
		c-4.4,0-7.1-3.1-7.1-6.7c0-2.2,1.1-3.4,1.9-3.9h-1.4v-4H321.5z M314.9,66.2c1.2,0,3.3-0.9,3.3-3.3c0-1.4-0.7-2.3-1.5-2.8
		c-0.5-0.3-1.1-0.5-1.7-0.6c-0.6,0-1.2,0.1-1.7,0.3c-0.9,0.4-1.8,1.3-1.8,3C311.5,65.2,313.4,66.2,314.9,66.2L314.9,66.2z
		 M300.8,52.9v-4h7.5h1c-1.5-1.4-1.5-3.3-1.5-3.9c0-2.8,2-6.5,7-6.5c4.8,0,7.2,3.3,7.2,6.7c0,1.9-0.9,3.3-1.9,3.9h1.4v3.8H300.8z
		 M314.8,42.5c-1.7,0-3.4,1.3-3.4,3.3c0,2.1,1.7,3.3,3.4,3.3c1.8,0,3.4-1.2,3.4-3.2C318.3,43.8,316.6,42.5,314.8,42.5L314.8,42.5z
		 M82.2,64.2l5.1,10.2l5.1-10.2H82.2z M174.1,52.7l-10.2,5.1l10.2,5.1V52.7z M288.1,77L283,66.9L277.9,77H288.1z"/>
	<path class="st0" d="M105.9,77h-7.3L87.3,52.6L75.9,77h-7.3l18.6-40L105.9,77z M179.2,45.8v-7.3h-15.6H160h-3.6V77h3.6h3.6h15.6
		v-7.3h-15.6v-24H179.2z M45.8,38.5h-7.3V77h7.3V38.5z M54.6,57.8l13.5-19.3h-8.5L46.1,57.8L59.6,77h8.5L54.6,57.8z M244.2,38.5H237
		V77h7.3V38.5z M253,57.8l13.5-19.3H258l-13.5,19.3L258,77h8.5L253,57.8z M203.9,62.1c3.7-2.4,5.7-6.2,5.7-10.6
		c0-4.7-2.1-8.6-5.9-10.8c-2.5-1.5-5.7-2.2-9.8-2.2h-9.1l0,0V77h7.3V57.8v-12h1.8c5,0,8.5,1.2,8.5,5.8c0,4.2-4.2,6.1-9,6.2
		c-0.2,0-0.7,0-1,0v0L205.9,77h8.5L203.9,62.1z M146.4,40.7c-2.5-1.5-5.7-2.2-9.8-2.2h-9.1l0,0V77h7.3V57.8v-12h1.8
		c5,0,8.5,1.2,8.5,5.8c0,4.2-4.2,6.1-9,6.2c-0.2,0-0.7,0-1,0v0l4.8,6.9c2.4-0.4,4.5-1.2,6.3-2.3c0.1-0.1,0.3-0.2,0.4-0.3
		c3.7-2.4,5.7-6.2,5.7-10.6C152.4,46.8,150.2,42.9,146.4,40.7z M291.9,38.5L283,54l-8.9-15.5h-7.3l16.2,28l16.2-28H291.9z
		 M105.3,82.4l3,6.4c14.1-10.8,16.7-22.8,7.5-35.7c-7.3-10.2,0.7-19.3,3.1-21.7l-5.4-4.3c-3.5,3.9-12.8,16-4.7,28.1
		C116.7,67,115.9,73.4,105.3,82.4z M214.8,82.4l3,6.4c14.1-10.8,16.7-22.8,7.5-35.7c-7.3-10.2,0.7-19.3,3.1-21.7l-5.4-4.3
		c-3.5,3.9-12.8,16-4.7,28.1C226.2,67,225.4,73.4,214.8,82.4z"/>
</g>
</svg>
